<svg xmlns="http://www.w3.org/2000/svg" width="1000" height="1000"><path fill="#ffffff" d="M989.4,479.2c-0.2-3.2-0.3-6.4-0.5-9.6c-0.1-2.1-0.3-4.1-0.4-6l-0.2-2.1c-0.8-9.6-1.7-18-2.7-26c-14-106.1-63.4-206.2-139.1-282C753.9,61,630.9,10,500.1,10c-130.9,0-254,51-346.5,143.5C61,246.1,10,369.1,10,500c0,130.8,51,253.9,143.5,346.4C246.1,939,369.2,990,500.1,990c130.8,0,253.8-51,346.4-143.6c67.6-67.7,113.7-152.7,133.2-245.9c6.3-30.3,9.7-61.8,10.2-93.8l0.1-3.2c0-1.2,0.1-2.3,0.1-3.5C990,493,989.7,486.1,989.4,479.2z M790.9,789.6c-12.8,0-26.2-4-40-11.9c-44.8-25.7-81.1-85.8-80.9-134c0-15,3.4-28.4,10-39.8c16.1-28.2,55.4-45.8,102.4-45.8h0.1c30.4,0,60.8,7.5,83.3,20.5c26.5,15.4,38.9,35.6,39,63.2c0,22.4-8.6,49.2-25.1,77.6C864.8,745.6,833.1,789.6,790.9,789.6z M500.1,938.7c-76.3-0.5-115-28.2-115-82.5c-0.1-32.5,13.6-70.9,35.7-100.4c22.8-30.5,51.6-48,79.1-48h0.1c27.5,0,56.3,17.5,79.1,48c22.1,29.4,35.8,67.9,35.8,100.4C614.8,910.5,576.1,938.2,500.1,938.7z M120,719.3c-16.4-28.3-25-55.1-25-77.4c0.1-27.8,12.6-48,39-63.3c22.5-13,52.9-20.5,83.2-20.5h0.1c47,0,86.3,17.5,102.6,45.9c6.6,11.4,9.9,24.8,9.9,39.8c0.2,48.1-36.1,108.2-80.9,133.9c-14,8.1-27.1,12-40.2,12C166.8,789.6,135.2,745.6,120,719.3z M208.8,210.4h0.2c12.8,0,26.2,4,40,11.9c44.8,25.7,81,85.7,80.9,133.9c0,15-3.3,28.4-9.9,39.8c-16.2,28.3-55.5,45.8-102.6,45.8c-30.4,0-60.8-7.5-83.3-20.5c-26.5-15.4-39-35.5-39.1-63.2c0-22.4,8.7-49.2,25.1-77.5C135.2,254.4,166.8,210.4,208.8,210.4z M500,61.3c76.2,0.5,114.8,28.3,114.9,82.5c0,32.5-13.7,71-35.8,100.4c-22.8,30.5-51.6,47.9-79.2,47.9c-27.5,0-56.3-17.4-79.1-47.9c-22.1-29.5-35.8-68-35.7-100.4C385.2,89.5,423.8,61.8,500,61.3z M791.1,210.4c42,0,73.7,44,88.8,70.3c16.3,28.3,25,55.1,25,77.5c-0.1,27.7-12.5,47.9-39,63.3c-22.5,13-53,20.5-83.5,20.5c-47,0-86.3-17.5-102.5-45.8c-6.6-11.4-9.9-24.8-9.9-39.8c-0.2-48.2,36.1-108.2,80.9-134c13.7-7.9,27.2-11.9,39.9-11.9H791.1z M500,607.4c-59.2,0-107.4-48.1-107.4-107.4c0-59.2,48.1-107.4,107.4-107.4c59.2,0,107.3,48.2,107.3,107.4C607.3,559.2,559.2,607.4,500,607.4z"/></svg>
